<svg width="24" height="24" viewBox="0 0 24 24" fill="none" xmlns="http://www.w3.org/2000/svg">
<path d="M12 22C10.6167 22 9.31667 21.7373 8.1 21.212C6.88333 20.6867 5.825 19.9743 4.925 19.075C4.025 18.175 3.31267 17.1167 2.788 15.9C2.26333 14.6833 2.00067 13.3833 2 12C2 10.6167 2.26267 9.31667 2.788 8.1C3.31333 6.88333 4.02567 5.825 4.925 4.925C5.825 4.025 6.88333 3.31267 8.1 2.788C9.31667 2.26333 10.6167 2.00067 12 2C13.3833 2 14.6833 2.26267 15.9 2.788C17.1167 3.31333 18.175 4.02567 19.075 4.925C19.975 5.825 20.6877 6.88333 21.213 8.1C21.7383 9.31667 22.0007 10.6167 22 12V13.45C22 14.4333 21.6627 15.271 20.988 15.963C20.3133 16.655 19.484 17.0007 18.5 17C17.9167 17 17.3667 16.875 16.85 16.625C16.3333 16.375 15.9 16.0167 15.55 15.55C15.0667 16.0333 14.5207 16.396 13.912 16.638C13.3033 16.88 12.666 17.0007 12 17C10.6167 17 9.43767 16.5123 8.463 15.537C7.48833 14.5617 7.00067 13.3827 7 12C7 10.6167 7.48767 9.43767 8.463 8.463C9.43833 7.48833 10.6173 7.00067 12 7C13.3833 7 14.5627 7.48767 15.538 8.463C16.5133 9.43833 17.0007 10.6173 17 12V13.45C17 13.8833 17.1417 14.25 17.425 14.55C17.7083 14.85 18.0667 15 18.5 15C18.9333 15 19.2917 14.85 19.575 14.55C19.8583 14.25 20 13.8833 20 13.45V12C20 9.76667 19.225 7.875 17.675 6.325C16.125 4.775 14.2333 4 12 4C9.76667 4 7.875 4.775 6.325 6.325C4.775 7.875 4 9.76667 4 12C4 14.2333 4.775 16.125 6.325 17.675C7.875 19.225 9.76667 20 12 20H17V22H12ZM12 15C12.8333 15 13.5417 14.7083 14.125 14.125C14.7083 13.5417 15 12.8333 15 12C15 11.1667 14.7083 10.4583 14.125 9.875C13.5417 9.29167 12.8333 9 12 9C11.1667 9 10.4583 9.29167 9.875 9.875C9.29167 10.4583 9 11.1667 9 12C9 12.8333 9.29167 13.5417 9.875 14.125C10.4583 14.7083 11.1667 15 12 15Z" fill="currentColor"/>
</svg>
