<svg width="24" height="24" viewBox="0 0 24 24" fill="none" xmlns="http://www.w3.org/2000/svg">
<path fill-rule="evenodd" clip-rule="evenodd" d="M2.25008 15C4.69008 18.82 8.24008 21.02 12.0001 21.02C15.7501 21.02 19.3001 18.82 21.7401 15C22.8001 13.34 22.8001 10.65 21.7401 9.00001C19.3001 5.18001 15.7501 2.98001 12.0001 2.98001C8.25008 2.98001 4.70008 5.18001 2.25008 9.00001C1.19008 10.66 1.19008 13.35 2.25008 15ZM3.52008 9.81001C5.68008 6.42001 8.77008 4.48001 12.0001 4.48001C15.2301 4.48001 18.3201 6.42001 20.4801 9.81001C21.2301 10.98 21.2301 13.02 20.4801 14.19C18.3201 17.58 15.2301 19.52 12.0001 19.52C8.77008 19.52 5.68008 17.58 3.52008 14.19C2.77008 13.02 2.77008 10.98 3.52008 9.81001ZM7.66992 12C7.66992 14.39 9.60992 16.33 11.9999 16.33C14.3899 16.33 16.3299 14.39 16.3299 12C16.3299 9.60995 14.3899 7.66995 11.9999 7.66995C9.60992 7.66995 7.66992 9.60995 7.66992 12ZM9.16992 12C9.16992 10.44 10.4399 9.16995 11.9999 9.16995C13.5599 9.16995 14.8299 10.44 14.8299 12C14.8299 13.56 13.5599 14.83 11.9999 14.83C10.4399 14.83 9.16992 13.56 9.16992 12Z" fill="#98A1B3"/>
</svg>
