<svg width="24" height="24" viewBox="0 0 24 24" fill="none" xmlns="http://www.w3.org/2000/svg">
<path fill-rule="evenodd" clip-rule="evenodd" d="M15.07 9.99021C15.0668 9.99349 15.0636 9.99675 15.0604 9.99998L10.0004 15.06L9.98487 15.0751L2.52994 22.53C2.37994 22.68 2.18994 22.75 1.99994 22.75C1.80994 22.75 1.61994 22.68 1.46994 22.53C1.17994 22.24 1.17994 21.76 1.46994 21.47L4.84338 18.0966C3.88024 17.2309 3.01154 16.191 2.26033 15C1.20033 13.35 1.20033 10.66 2.26033 9.00004C4.70033 5.18004 8.25033 2.98004 12.0003 2.98004C14.0895 2.98004 16.1516 3.6654 17.9812 4.95905L21.4702 1.47C21.7602 1.18 22.2402 1.18 22.5302 1.47C22.8202 1.76 22.8202 2.24 22.5302 2.53L15.07 9.99021ZM14.485 8.45527C13.7601 7.94445 12.8985 7.66998 12.0004 7.66998C9.61041 7.66998 7.67041 9.60998 7.67041 12C7.67041 12.898 7.94484 13.7595 8.45559 14.4844L5.90465 17.0353C5.0241 16.2442 4.22383 15.2875 3.52033 14.19C2.77033 13.02 2.77033 10.98 3.52033 9.81004C5.68033 6.42004 8.77033 4.48004 12.0003 4.48004C13.695 4.48004 15.3814 5.01386 16.9034 6.03684L14.485 8.45527ZM12.0004 9.16998C12.5004 9.16998 12.9804 9.29998 13.4004 9.53998L9.54041 13.4C9.30041 12.98 9.17041 12.5 9.17041 12C9.17041 10.44 10.4404 9.16998 12.0004 9.16998ZM12.0001 21.0201C10.6701 21.0201 9.37006 20.7501 8.12006 20.2201C7.74006 20.0601 7.56006 19.6201 7.72006 19.2401C7.88006 18.8601 8.32006 18.6801 8.70006 18.8401C9.76006 19.2901 10.8701 19.5201 11.9901 19.5201C15.2201 19.5201 18.3101 17.5801 20.4701 14.1901C21.2201 13.0201 21.2201 10.9801 20.4701 9.81006C20.1601 9.32006 19.8201 8.85006 19.4601 8.41006C19.2001 8.09006 19.2501 7.62006 19.5701 7.35006C19.8901 7.09006 20.3601 7.13006 20.6301 7.46006C21.0201 7.94006 21.4001 8.46006 21.7401 9.00006C22.8001 10.6501 22.8001 13.3401 21.7401 15.0001C19.3001 18.8201 15.7501 21.0201 12.0001 21.0201ZM11.9501 15.6599C12.0201 16.0199 12.3401 16.2699 12.6901 16.2699C12.7071 16.2699 12.723 16.2688 12.7385 16.2676C12.7685 16.2654 12.7971 16.2633 12.8301 16.2699C14.5501 15.9499 15.9301 14.5799 16.2501 12.8499C16.3301 12.4399 16.0601 12.0499 15.6501 11.9699C15.2401 11.8999 14.8501 12.1599 14.7701 12.5699C14.5701 13.6699 13.6501 14.5899 12.5501 14.7899C12.1401 14.8599 11.8701 15.2499 11.9501 15.6599Z" fill="#98A1B3"/>
</svg>
