<svg width="24" height="24" viewBox="0 0 24 24" fill="none" xmlns="http://www.w3.org/2000/svg">
<path fill-rule="evenodd" clip-rule="evenodd" d="M18.75 9.34221V8C18.75 5.1 18.05 1.25 12 1.25C5.95 1.25 5.25 5.1 5.25 8V9.34221C2.22527 9.70987 1.25 11.2377 1.25 15V17C1.25 21.41 2.59 22.75 7 22.75H17C21.41 22.75 22.75 21.41 22.75 17V15C22.75 11.2377 21.7747 9.70987 18.75 9.34221ZM6.75 9.25149C6.83222 9.25049 6.91554 9.25 7 9.25H17C17.0845 9.25 17.1678 9.25049 17.25 9.25149V8C17.25 4.85 16.36 2.75 12 2.75C7.64 2.75 6.75 4.85 6.75 8V9.25149ZM12 19.25C10.21 19.25 8.75 17.79 8.75 16C8.75 14.21 10.21 12.75 12 12.75C13.79 12.75 15.25 14.21 15.25 16C15.25 17.79 13.79 19.25 12 19.25ZM12 14.25C11.04 14.25 10.25 15.04 10.25 16C10.25 16.96 11.04 17.75 12 17.75C12.96 17.75 13.75 16.96 13.75 16C13.75 15.04 12.96 14.25 12 14.25ZM2.75 15C2.75 11.43 3.42 10.75 7 10.75H17C20.58 10.75 21.25 11.43 21.25 15V17C21.25 20.57 20.58 21.25 17 21.25H7C3.42 21.25 2.75 20.57 2.75 17V15Z" fill="currentColor"/>
</svg>
