<svg width="26" height="24" viewBox="0 0 26 24" fill="none" xmlns="http://www.w3.org/2000/svg">
<path d="M10.7941 0C5.14874 0 0.550293 4.48629 0.550293 9.99396C0.550293 15.5016 5.14874 19.9879 10.7941 19.9879C13.249 19.9879 15.5036 19.1374 17.2705 17.7256L23.3868 23.6927C23.4812 23.7886 23.5942 23.8652 23.7194 23.918C23.8445 23.9707 23.9791 23.9986 24.1154 23.9999C24.2517 24.0013 24.3869 23.9761 24.513 23.9258C24.6392 23.8756 24.7539 23.8013 24.8502 23.7073C24.9466 23.6132 25.0228 23.5014 25.0743 23.3783C25.1258 23.2552 25.1516 23.1233 25.1502 22.9903C25.1489 22.8574 25.1203 22.726 25.0662 22.604C25.0121 22.4819 24.9336 22.3716 24.8353 22.2795L18.7191 16.3124C20.1662 14.5886 21.0379 12.389 21.0379 9.99396C21.0379 4.48629 16.4395 0 10.7941 0ZM10.7941 1.99879C15.3322 1.99879 18.9892 5.56652 18.9892 9.99396C18.9892 14.4214 15.3322 17.9891 10.7941 17.9891C6.25597 17.9891 2.59906 14.4214 2.59906 9.99396C2.59906 5.56652 6.25597 1.99879 10.7941 1.99879Z" fill="#3D9970"/>
</svg>
