<svg width="24" height="24" viewBox="0 0 24 24" fill="none" xmlns="http://www.w3.org/2000/svg">
<path fill-rule="evenodd" clip-rule="evenodd" d="M6.25 7C6.25 10.17 8.83 12.75 12 12.75C15.17 12.75 17.75 10.17 17.75 7C17.75 3.83 15.17 1.25 12 1.25C8.83 1.25 6.25 3.83 6.25 7ZM7.75 7C7.75 4.66 9.66 2.75 12 2.75C14.34 2.75 16.25 4.66 16.25 7C16.25 9.34 14.34 11.25 12 11.25C9.66 11.25 7.75 9.34 7.75 7ZM19.8401 22C19.8401 22.41 20.1801 22.75 20.5901 22.75C21.0001 22.75 21.3401 22.41 21.3401 22C21.3401 17.73 17.1502 14.25 12.0002 14.25C6.85015 14.25 2.66016 17.73 2.66016 22C2.66016 22.41 3.00016 22.75 3.41016 22.75C3.82016 22.75 4.16016 22.41 4.16016 22C4.16016 18.55 7.68015 15.75 12.0002 15.75C16.3202 15.75 19.8401 18.55 19.8401 22Z" fill="currentColor"/>
</svg>
