<svg width="471" height="513" viewBox="0 0 471 513" fill="none" xmlns="http://www.w3.org/2000/svg">
<path fill-rule="evenodd" clip-rule="evenodd" d="M276.436 61.6579C277.385 69.3576 275.012 77.4058 269.256 83.4738C263.4 89.6477 255.312 92.4326 247.445 91.7638C244.662 91.5272 241.906 93.0976 240.761 95.6447C239.37 98.7402 237.442 101.658 234.974 104.26C223.201 116.671 203.597 117.189 191.185 105.416C189.096 103.434 185.803 103.101 183.201 104.335C176.239 107.637 167.741 106.731 161.588 101.513C157.94 104.135 154.454 107.087 151.174 110.367C131.058 130.483 123.324 158.293 127.972 184.324C129.792 182.91 131.543 181.635 133.189 180.529C177.515 150.718 183.595 145.508 202.963 125.269L204.741 127.047L205.757 128.062L205.557 128.262L205.848 128.154C183.8 150.373 140.987 195.163 135.514 207.048C136.849 209.711 138.336 212.318 139.973 214.855C153.26 207.66 197.928 164.889 220.339 142.645L220.271 142.824L220.394 142.7L222.7 145.005L222.527 145.178L222.755 145.06C202.588 165.336 170.213 198.549 146.894 224.106C148.252 225.682 149.679 227.22 151.174 228.715C152.707 230.248 154.285 231.709 155.904 233.099C181.46 209.781 214.668 177.411 234.941 157.246L234.823 157.474L234.996 157.301L237.301 159.607L237.128 159.779L237.356 159.662C217.381 179.745 185.428 212.52 162.162 237.977C165.791 240.538 169.577 242.777 173.482 244.693C198.038 222.399 230.045 191.235 249.542 171.848L249.359 172.214L249.633 171.939L251.665 173.97L252.427 174.732C232.188 194.101 226.978 200.181 197.167 244.507C195.756 246.605 194.072 248.875 192.174 251.239C219.159 257.215 248.529 249.707 269.522 228.715C281.758 216.478 289.413 201.395 292.486 185.597L325.692 79.3098C330.487 63.9619 316.129 49.5172 300.753 54.2203L276.436 61.6579Z" fill="#3D9970"/>
<path d="M200.845 65.4683C204.448 58.8871 216.052 64.5009 222.634 68.1037C229.215 71.7066 231.629 79.9624 228.026 86.5436C224.424 93.1248 216.168 95.5393 209.587 91.9365C203.005 88.3336 197.242 72.0495 200.845 65.4683Z" fill="#3D9970"/>
<path d="M171.476 73.8417C175.721 71.5971 180.981 73.2187 183.226 77.4636C185.471 81.7085 181.373 95.655 177.128 97.8996C172.883 100.144 170.098 89.837 167.854 85.5921C165.609 81.3472 167.231 76.0864 171.476 73.8417Z" fill="#3D9970"/>
<path d="M247.677 59.5813C249.983 55.3693 255.267 53.8241 259.479 56.1299C263.691 58.4357 265.236 63.7194 262.93 67.9314C260.625 72.1434 252.862 78.217 248.65 75.9112C244.438 73.6053 245.372 63.7933 247.677 59.5813Z" fill="#3D9970"/>
<path d="M127.4 321.125L57.4 485.725H20.6L46.2 428.925L0.8 321.125H39L64.8 390.925L90.4 321.125H127.4ZM238.967 375.125C238.967 378.325 238.767 381.658 238.367 385.125H160.967C161.501 392.058 163.701 397.392 167.567 401.125C171.567 404.725 176.434 406.525 182.167 406.525C190.701 406.525 196.634 402.925 199.967 395.725H236.367C234.501 403.058 231.101 409.658 226.167 415.525C221.367 421.392 215.301 425.992 207.967 429.325C200.634 432.658 192.434 434.325 183.367 434.325C172.434 434.325 162.701 431.992 154.167 427.325C145.634 422.658 138.967 415.992 134.167 407.325C129.367 398.658 126.967 388.525 126.967 376.925C126.967 365.325 129.301 355.192 133.967 346.525C138.767 337.858 145.434 331.192 153.967 326.525C162.501 321.858 172.301 319.525 183.367 319.525C194.167 319.525 203.767 321.792 212.167 326.325C220.567 330.858 227.101 337.325 231.767 345.725C236.567 354.125 238.967 363.925 238.967 375.125ZM203.967 366.125C203.967 360.258 201.967 355.592 197.967 352.125C193.967 348.658 188.967 346.925 182.967 346.925C177.234 346.925 172.367 348.592 168.367 351.925C164.501 355.258 162.101 359.992 161.167 366.125H203.967ZM285.209 339.725C289.209 333.592 294.209 328.792 300.209 325.325C306.209 321.725 312.876 319.925 320.209 319.925V356.125H310.809C302.276 356.125 295.876 357.992 291.609 361.725C287.343 365.325 285.209 371.725 285.209 380.925V432.725H251.009V321.125H285.209V339.725ZM347.756 309.525C341.756 309.525 336.823 307.792 332.956 304.325C329.223 300.725 327.356 296.325 327.356 291.125C327.356 285.792 329.223 281.392 332.956 277.925C336.823 274.325 341.756 272.525 347.756 272.525C353.623 272.525 358.423 274.325 362.156 277.925C366.023 281.392 367.956 285.792 367.956 291.125C367.956 296.325 366.023 300.725 362.156 304.325C358.423 307.792 353.623 309.525 347.756 309.525ZM364.756 321.125V432.725H330.556V321.125H364.756ZM415.541 404.525H463.941V432.725H377.341V405.525L423.741 349.325H377.741V321.125H462.941V348.325L415.541 404.525Z" fill="#3D9970"/>
</svg>
