<svg width="139" height="194" viewBox="0 0 139 194" fill="none" xmlns="http://www.w3.org/2000/svg">
<g filter="url(#filter0_d_1085_2470)">
<path fill-rule="evenodd" clip-rule="evenodd" d="M100.393 91.853C100.394 91.8508 100.396 91.8499 100.398 91.8511C100.399 91.8515 100.399 91.8517 100.4 91.8516C100.401 91.8516 100.401 91.8514 100.402 91.851C100.403 91.8506 100.403 91.85 100.403 91.8492L100.596 91.2308C100.645 91.0781 100.693 90.9252 100.74 90.7721L113.396 50.263C117.634 36.6971 106.908 23.8369 93.7422 24.2812C93.983 27.9493 92.7514 31.7033 90.0221 34.5806C87.6667 37.0638 84.6003 38.4675 81.4417 38.7753C78.6623 39.0462 75.8837 40.6184 74.3476 42.9506C73.8432 43.7163 73.2645 44.4485 72.6114 45.137C66.6325 51.4402 56.6759 51.7031 50.3727 45.7242C49.3116 44.7177 47.639 44.5485 46.3177 45.1752C42.7821 46.8523 38.4663 46.3919 35.3413 43.7423C33.4883 45.0738 31.7184 46.5727 30.0523 48.2387C19.8361 58.4549 15.9083 72.5783 18.2689 85.7989C19.1931 85.0807 20.0826 84.4334 20.9184 83.8713C43.4297 68.7314 46.5178 66.0854 56.3543 55.8069L56.7412 56.1938L56.7413 56.1938L57.773 57.2255L57.6717 57.3268L57.8194 57.2718C46.6222 68.5562 24.8786 91.3036 22.0992 97.3396C22.7774 98.6921 23.5322 100.016 24.3638 101.305C31.1119 97.6502 53.797 75.9282 65.179 64.6316L65.1441 64.7222L65.2069 64.6595L66.3778 65.8303L66.29 65.9181L66.4057 65.8582C56.1638 76.1555 39.7214 93.023 27.8788 106.003C28.5686 106.803 29.2931 107.584 30.0523 108.343C30.831 109.122 31.6324 109.864 32.4544 110.57C45.4335 98.7274 62.2983 82.2877 72.5943 72.047L72.5345 72.1627L72.6223 72.0749L73.7932 73.2458L73.7054 73.3335L73.8211 73.2737C63.6765 83.4731 47.4486 100.119 35.6329 113.047C37.4756 114.348 39.3986 115.485 41.3817 116.458C53.8527 105.136 70.1081 89.3089 80.01 79.4626L79.917 79.6482L80.0563 79.5089L80.5722 80.0248L80.5723 80.0248L81.475 80.9275C71.1965 90.764 68.5504 93.8521 53.4106 116.363C52.694 117.429 51.8388 118.582 50.8751 119.783C64.5798 122.817 79.4957 119.004 90.1568 108.343C94.9573 103.543 98.3693 97.8797 100.393 91.853Z" fill="#FFC700"/>
</g>
<g filter="url(#filter1_d_1085_2470)">
<path d="M55.2785 25.4361C57.1083 22.0938 63.0019 24.9448 66.3442 26.7746C69.6866 28.6043 70.9128 32.7971 69.0831 36.1395C67.2533 39.4819 63.0605 40.7081 59.7181 38.8784C56.3758 37.0486 53.4488 28.7785 55.2785 25.4361Z" fill="#FFC700"/>
</g>
<g filter="url(#filter2_d_1085_2470)">
<path d="M40.3626 29.6888C42.5184 28.5489 45.1902 29.3724 46.3301 31.5282C47.4701 33.6841 45.389 40.767 43.2332 41.907C41.0773 43.0469 39.6631 37.8122 38.5232 35.6564C37.3832 33.5005 38.2067 30.8288 40.3626 29.6888Z" fill="#FFC700"/>
</g>
<g filter="url(#filter3_d_1085_2470)">
<path d="M79.0631 22.4465C80.2341 20.3074 82.9175 19.5226 85.0566 20.6936C87.1957 21.8646 87.9805 24.5481 86.8095 26.6872C85.6384 28.8263 81.6962 31.9109 79.5571 30.7398C77.418 29.5688 77.892 24.5856 79.0631 22.4465Z" fill="#FFC700"/>
</g>
<g filter="url(#filter4_d_1085_2470)">
<path d="M43.336 147.612L26.536 187.116H17.704L23.848 173.484L12.952 147.612H22.12L28.312 164.364L34.456 147.612H43.336ZM70.1121 160.572C70.1121 161.34 70.0641 162.14 69.9681 162.972H51.3921C51.5201 164.636 52.0481 165.916 52.9761 166.812C53.9361 167.676 55.1041 168.108 56.4801 168.108C58.5281 168.108 59.9521 167.244 60.7521 165.516H69.4881C69.0401 167.276 68.2241 168.86 67.0401 170.268C65.8881 171.676 64.4321 172.78 62.6721 173.58C60.9121 174.38 58.9441 174.78 56.7681 174.78C54.1441 174.78 51.8081 174.22 49.7601 173.1C47.7121 171.98 46.1121 170.38 44.9601 168.3C43.8081 166.22 43.2321 163.788 43.2321 161.004C43.2321 158.22 43.7921 155.788 44.9121 153.708C46.0641 151.628 47.6641 150.028 49.7121 148.908C51.7601 147.788 54.1121 147.228 56.7681 147.228C59.3601 147.228 61.6641 147.772 63.6801 148.86C65.6961 149.948 67.2641 151.5 68.3841 153.516C69.5361 155.532 70.1121 157.884 70.1121 160.572ZM61.7121 158.412C61.7121 157.004 61.2321 155.884 60.2721 155.052C59.3121 154.22 58.1121 153.804 56.6721 153.804C55.2961 153.804 54.1281 154.204 53.1681 155.004C52.2401 155.804 51.6641 156.94 51.4401 158.412H61.7121ZM81.2102 152.076C82.1702 150.604 83.3702 149.452 84.8103 148.62C86.2502 147.756 87.8502 147.324 89.6102 147.324V156.012H87.3543C85.3063 156.012 83.7702 156.46 82.7462 157.356C81.7222 158.22 81.2102 159.756 81.2102 161.964V174.396H73.0022V147.612H81.2102V152.076ZM96.2215 144.828C94.7815 144.828 93.5975 144.412 92.6695 143.58C91.7735 142.716 91.3255 141.66 91.3255 140.412C91.3255 139.132 91.7735 138.076 92.6695 137.244C93.5975 136.38 94.7815 135.948 96.2215 135.948C97.6295 135.948 98.7815 136.38 99.6775 137.244C100.606 138.076 101.07 139.132 101.07 140.412C101.07 141.66 100.606 142.716 99.6775 143.58C98.7815 144.412 97.6295 144.828 96.2215 144.828ZM100.302 147.612V174.396H92.0935V147.612H100.302ZM112.49 167.628H124.106V174.396H103.322V167.868L114.458 154.38H103.418V147.612H123.866V154.14L112.49 167.628Z" fill="#FFC700"/>
</g>
<defs>
<filter id="filter0_d_1085_2470" x="16.6042" y="24.27" width="98.731" height="98.5212" filterUnits="userSpaceOnUse" color-interpolation-filters="sRGB">
<feFlood flood-opacity="0" result="BackgroundImageFix"/>
<feColorMatrix in="SourceAlpha" type="matrix" values="0 0 0 0 0 0 0 0 0 0 0 0 0 0 0 0 0 0 127 0" result="hardAlpha"/>
<feOffset dy="1"/>
<feGaussianBlur stdDeviation="0.5"/>
<feComposite in2="hardAlpha" operator="out"/>
<feColorMatrix type="matrix" values="0 0 0 0 0 0 0 0 0 0 0 0 0 0 0 0 0 0 0.25 0"/>
<feBlend mode="normal" in2="BackgroundImageFix" result="effect1_dropShadow_1085_2470"/>
<feBlend mode="normal" in="SourceGraphic" in2="effect1_dropShadow_1085_2470" result="shape"/>
</filter>
<filter id="filter1_d_1085_2470" x="53.7148" y="23.8909" width="17.217" height="17.8362" filterUnits="userSpaceOnUse" color-interpolation-filters="sRGB">
<feFlood flood-opacity="0" result="BackgroundImageFix"/>
<feColorMatrix in="SourceAlpha" type="matrix" values="0 0 0 0 0 0 0 0 0 0 0 0 0 0 0 0 0 0 127 0" result="hardAlpha"/>
<feOffset dy="1"/>
<feGaussianBlur stdDeviation="0.5"/>
<feComposite in2="hardAlpha" operator="out"/>
<feColorMatrix type="matrix" values="0 0 0 0 0 0 0 0 0 0 0 0 0 0 0 0 0 0 0.25 0"/>
<feBlend mode="normal" in2="BackgroundImageFix" result="effect1_dropShadow_1085_2470"/>
<feBlend mode="normal" in="SourceGraphic" in2="effect1_dropShadow_1085_2470" result="shape"/>
</filter>
<filter id="filter2_d_1085_2470" x="37.0103" y="29.1758" width="10.6426" height="14.8916" filterUnits="userSpaceOnUse" color-interpolation-filters="sRGB">
<feFlood flood-opacity="0" result="BackgroundImageFix"/>
<feColorMatrix in="SourceAlpha" type="matrix" values="0 0 0 0 0 0 0 0 0 0 0 0 0 0 0 0 0 0 127 0" result="hardAlpha"/>
<feOffset dy="1"/>
<feGaussianBlur stdDeviation="0.5"/>
<feComposite in2="hardAlpha" operator="out"/>
<feColorMatrix type="matrix" values="0 0 0 0 0 0 0 0 0 0 0 0 0 0 0 0 0 0 0.25 0"/>
<feBlend mode="normal" in2="BackgroundImageFix" result="effect1_dropShadow_1085_2470"/>
<feBlend mode="normal" in="SourceGraphic" in2="effect1_dropShadow_1085_2470" result="shape"/>
</filter>
<filter id="filter3_d_1085_2470" x="77.0688" y="20.1504" width="11.2839" height="12.8467" filterUnits="userSpaceOnUse" color-interpolation-filters="sRGB">
<feFlood flood-opacity="0" result="BackgroundImageFix"/>
<feColorMatrix in="SourceAlpha" type="matrix" values="0 0 0 0 0 0 0 0 0 0 0 0 0 0 0 0 0 0 127 0" result="hardAlpha"/>
<feOffset dy="1"/>
<feGaussianBlur stdDeviation="0.5"/>
<feComposite in2="hardAlpha" operator="out"/>
<feColorMatrix type="matrix" values="0 0 0 0 0 0 0 0 0 0 0 0 0 0 0 0 0 0 0.25 0"/>
<feBlend mode="normal" in2="BackgroundImageFix" result="effect1_dropShadow_1085_2470"/>
<feBlend mode="normal" in="SourceGraphic" in2="effect1_dropShadow_1085_2470" result="shape"/>
</filter>
<filter id="filter4_d_1085_2470" x="11.9519" y="135.948" width="113.154" height="53.168" filterUnits="userSpaceOnUse" color-interpolation-filters="sRGB">
<feFlood flood-opacity="0" result="BackgroundImageFix"/>
<feColorMatrix in="SourceAlpha" type="matrix" values="0 0 0 0 0 0 0 0 0 0 0 0 0 0 0 0 0 0 127 0" result="hardAlpha"/>
<feOffset dy="1"/>
<feGaussianBlur stdDeviation="0.5"/>
<feComposite in2="hardAlpha" operator="out"/>
<feColorMatrix type="matrix" values="0 0 0 0 0 0 0 0 0 0 0 0 0 0 0 0 0 0 0.25 0"/>
<feBlend mode="normal" in2="BackgroundImageFix" result="effect1_dropShadow_1085_2470"/>
<feBlend mode="normal" in="SourceGraphic" in2="effect1_dropShadow_1085_2470" result="shape"/>
</filter>
</defs>
</svg>
