<svg width="117" height="161" viewBox="0 0 117 161" fill="none" xmlns="http://www.w3.org/2000/svg">
<path d="M18.821 45.9238C19.2461 43.2045 21.5439 41.3053 23.9534 41.682C26.3628 42.0587 30.6901 48.619 30.265 51.3383C29.8399 54.0577 24.8233 51.9063 22.4139 51.5297C20.0045 51.153 18.3959 48.6432 18.821 45.9238Z" fill="#FFC700"/>
<path d="M37.6379 37.6311C39.4677 34.2888 45.3612 37.1398 48.7036 38.9696C52.046 40.7993 53.2722 44.9921 51.4424 48.3345C49.6127 51.6769 45.4199 52.9031 42.0775 51.0734C38.7351 49.2436 35.8082 40.9735 37.6379 37.6311Z" fill="#FFC700"/>
<path d="M58.8631 31.8732C60.0341 29.7341 62.7176 28.9493 64.8567 30.1204C66.9958 31.2914 67.7806 33.9748 66.6095 36.1139C65.4385 38.253 61.4962 41.3376 59.3571 40.1666C57.218 38.9955 57.6921 34.0123 58.8631 31.8732Z" fill="#FFC700"/>
<path fill-rule="evenodd" clip-rule="evenodd" d="M13.311 50.6181C2.97006 67.3184 8.63412 91.6877 11 95C42.4971 91.9429 101.208 66.7692 103.673 14.2819C96.0052 22.6584 84.209 24.3623 71.6426 26.1457C72.0003 27.177 72.2503 28.2766 72.375 29.4283C73.1601 36.6789 68.6816 43.2552 62.372 44.117C61.7204 44.206 61.1847 44.7105 61.0907 45.3611C60.9972 46.0082 60.8642 46.6573 60.6899 47.3054C58.4129 55.7743 49.9625 60.8718 41.8154 58.691C40.8455 58.4313 39.9236 58.0802 39.0559 57.6489C36.4985 56.3775 33.208 56.372 30.5994 57.5398C27.9495 58.7261 24.9282 59.0472 21.9534 58.2509C17.9218 57.1717 14.8457 54.273 13.311 50.6181Z" fill="#FCD139"/>
<path d="M0.0872921 98.3251L10.9801 94.254L12.5001 96.5L1.79855 102.075L0.0872921 98.3251Z" fill="#FFC700"/>
<path d="M103.834 14.0256C97.2548 55.1729 62.3239 76.0047 9.75448 94.6728C47.5 126 79.003 106.809 94.4999 88.5C106.5 74.3228 116 51.5 103.834 14.0256Z" fill="#FFC700"/>
<path d="M16.6099 138.2C17.8299 138.46 18.8099 139.07 19.5499 140.03C20.2899 140.97 20.6599 142.05 20.6599 143.27C20.6599 145.03 20.0399 146.43 18.7999 147.47C17.5799 148.49 15.8699 149 13.6699 149H3.85988V127.94H13.3399C15.4799 127.94 17.1499 128.43 18.3499 129.41C19.5699 130.39 20.1799 131.72 20.1799 133.4C20.1799 134.64 19.8499 135.67 19.1899 136.49C18.5499 137.31 17.6899 137.88 16.6099 138.2ZM8.98988 136.46H12.3499C13.1899 136.46 13.8299 136.28 14.2699 135.92C14.7299 135.54 14.9599 134.99 14.9599 134.27C14.9599 133.55 14.7299 133 14.2699 132.62C13.8299 132.24 13.1899 132.05 12.3499 132.05H8.98988V136.46ZM12.7699 144.86C13.6299 144.86 14.2899 144.67 14.7499 144.29C15.2299 143.89 15.4699 143.32 15.4699 142.58C15.4699 141.84 15.2199 141.26 14.7199 140.84C14.2399 140.42 13.5699 140.21 12.7099 140.21H8.98988V144.86H12.7699ZM25.3153 130.52C24.4153 130.52 23.6753 130.26 23.0953 129.74C22.5353 129.2 22.2553 128.54 22.2553 127.76C22.2553 126.96 22.5353 126.3 23.0953 125.78C23.6753 125.24 24.4153 124.97 25.3153 124.97C26.1953 124.97 26.9153 125.24 27.4753 125.78C28.0553 126.3 28.3453 126.96 28.3453 127.76C28.3453 128.54 28.0553 129.2 27.4753 129.74C26.9153 130.26 26.1953 130.52 25.3153 130.52ZM27.8653 132.26V149H22.7353V132.26H27.8653ZM35.4829 144.77H42.7429V149H29.7529V144.92L36.7129 136.49H29.8129V132.26H42.5929V136.34L35.4829 144.77ZM62.7257 127.94L55.4357 142.04V149H50.3057V142.04L43.0157 127.94H48.8357L52.9157 136.76L56.9657 127.94H62.7257ZM79.6727 140.36C79.6727 140.84 79.6427 141.34 79.5827 141.86H67.9727C68.0527 142.9 68.3827 143.7 68.9627 144.26C69.5627 144.8 70.2927 145.07 71.1527 145.07C72.4327 145.07 73.3227 144.53 73.8227 143.45H79.2827C79.0027 144.55 78.4927 145.54 77.7527 146.42C77.0327 147.3 76.1227 147.99 75.0227 148.49C73.9227 148.99 72.6927 149.24 71.3327 149.24C69.6927 149.24 68.2327 148.89 66.9527 148.19C65.6727 147.49 64.6727 146.49 63.9527 145.19C63.2327 143.89 62.8727 142.37 62.8727 140.63C62.8727 138.89 63.2227 137.37 63.9227 136.07C64.6427 134.77 65.6427 133.77 66.9227 133.07C68.2027 132.37 69.6727 132.02 71.3327 132.02C72.9527 132.02 74.3927 132.36 75.6527 133.04C76.9127 133.72 77.8927 134.69 78.5927 135.95C79.3127 137.21 79.6727 138.68 79.6727 140.36ZM74.4227 139.01C74.4227 138.13 74.1227 137.43 73.5227 136.91C72.9227 136.39 72.1727 136.13 71.2727 136.13C70.4127 136.13 69.6827 136.38 69.0827 136.88C68.5027 137.38 68.1427 138.09 68.0027 139.01H74.4227ZM86.609 135.05C87.209 134.13 87.959 133.41 88.859 132.89C89.759 132.35 90.759 132.08 91.859 132.08V137.51H90.449C89.169 137.51 88.209 137.79 87.569 138.35C86.929 138.89 86.609 139.85 86.609 141.23V149H81.479V132.26H86.609V135.05ZM95.991 130.52C95.091 130.52 94.351 130.26 93.771 129.74C93.211 129.2 92.931 128.54 92.931 127.76C92.931 126.96 93.211 126.3 93.771 125.78C94.351 125.24 95.091 124.97 95.991 124.97C96.871 124.97 97.591 125.24 98.151 125.78C98.731 126.3 99.021 126.96 99.021 127.76C99.021 128.54 98.731 129.2 98.151 129.74C97.591 130.26 96.871 130.52 95.991 130.52ZM98.541 132.26V149H93.411V132.26H98.541ZM106.159 144.77H113.419V149H100.429V144.92L107.389 136.49H100.489V132.26H113.269V136.34L106.159 144.77Z" fill="#FFC700"/>
</svg>
